# xmcd CD database file
#
# Track frame offsets:
#	150
#	14079
#	29520
#	49090
#	63794
#	84100
#	97566
#	112108
#	127689
#	149318
#	163596
#
# Disc length: 2497 seconds
#
# Revision: 0
# Processed by: cddbd v1.5.2PL0 Copyright (c) Steve Scherf et al.
# Submitted via: CDex 1.51
#
DISCID=8109bf0b
DTITLE=Arty Hill and The Long Gone Daddys - Back on the Rail
DYEAR=2005
DGENRE=Country
TTITLE0=Living on the Road Again
TTITLE1=Jackson Shake
TTITLE2=Me and My Glass Jaw
TTITLE3=Bid Daddy's Rye
TTITLE4=I Left Highlandtown
TTITLE5=Based on Real Life
TTITLE6=It Ain't Working
TTITLE7=Drifting In
TTITLE8=Back on the Rail
TTITLE9=I Ate Through the Jail
TTITLE10=Tammerlane
EXTD=YEAR: 2005
EXTT0=
EXTT1=
EXTT2=
EXTT3=
EXTT4=
EXTT5=
EXTT6=
EXTT7=
EXTT8=
EXTT9=
EXTT10=
PLAYORDER=
